<mxfile host="Electron" modified="2024-06-05T20:18:20.199Z" agent="Mozilla/5.0 (X11; Linux x86_64) AppleWebKit/537.36 (KHTML, like Gecko) draw.io/24.4.13 Chrome/124.0.6367.207 Electron/30.0.6 Safari/537.36" etag="9ECzPawvfNt2GzyZLx2Z" version="24.4.13" type="device">
  <diagram name="Page-1" id="oBsgWgB1HsKktJ9ZIPsJ">
    <mxGraphModel dx="2191" dy="843" grid="1" gridSize="10" guides="1" tooltips="1" connect="1" arrows="1" fold="1" page="1" pageScale="1" pageWidth="827" pageHeight="1169" math="0" shadow="0">
      <root>
        <mxCell id="0" />
        <mxCell id="1" parent="0" />
        <mxCell id="7zDMnjXNS5eOzX1RUn6U-77" value="" style="rounded=0;whiteSpace=wrap;html=1;strokeWidth=2;" parent="1" vertex="1">
          <mxGeometry x="35" y="230" width="130" height="610" as="geometry" />
        </mxCell>
        <mxCell id="7zDMnjXNS5eOzX1RUn6U-62" value="" style="rounded=0;whiteSpace=wrap;html=1;strokeWidth=2;" parent="1" vertex="1">
          <mxGeometry x="165" y="230" width="130" height="610" as="geometry" />
        </mxCell>
        <mxCell id="7zDMnjXNS5eOzX1RUn6U-61" value="" style="rounded=0;whiteSpace=wrap;html=1;strokeWidth=2;" parent="1" vertex="1">
          <mxGeometry x="290" y="40" width="130" height="800" as="geometry" />
        </mxCell>
        <mxCell id="7zDMnjXNS5eOzX1RUn6U-60" value="" style="rounded=0;whiteSpace=wrap;html=1;strokeWidth=2;" parent="1" vertex="1">
          <mxGeometry x="420" y="230" width="130" height="610" as="geometry" />
        </mxCell>
        <mxCell id="7zDMnjXNS5eOzX1RUn6U-59" value="" style="rounded=0;whiteSpace=wrap;html=1;strokeWidth=2;" parent="1" vertex="1">
          <mxGeometry x="550" y="230" width="130" height="610" as="geometry" />
        </mxCell>
        <mxCell id="7zDMnjXNS5eOzX1RUn6U-50" value="" style="rounded=0;whiteSpace=wrap;html=1;strokeWidth=2;" parent="1" vertex="1">
          <mxGeometry x="680" y="40" width="140" height="800" as="geometry" />
        </mxCell>
        <mxCell id="7zDMnjXNS5eOzX1RUn6U-28" value="interrupts" style="rounded=1;whiteSpace=wrap;html=1;fillColor=#e1d5e7;strokeColor=#9673a6;fontSize=16;" parent="1" vertex="1">
          <mxGeometry x="300" y="760" width="505" height="60" as="geometry" />
        </mxCell>
        <mxCell id="7zDMnjXNS5eOzX1RUn6U-1" value="Architecture: Technology stack per abstraction level" style="text;html=1;align=center;verticalAlign=middle;whiteSpace=wrap;rounded=0;fontSize=18;fontStyle=1" parent="1" vertex="1">
          <mxGeometry x="-120" y="10" width="470" height="30" as="geometry" />
        </mxCell>
        <mxCell id="7zDMnjXNS5eOzX1RUn6U-2" value="AL4: Kinematics/UI" style="text;html=1;align=center;verticalAlign=middle;whiteSpace=wrap;rounded=0;fontSize=16;fontStyle=1" parent="1" vertex="1">
          <mxGeometry x="-100" y="70" width="150" height="30" as="geometry" />
        </mxCell>
        <mxCell id="7zDMnjXNS5eOzX1RUn6U-3" value="AL3: Control" style="text;html=1;align=center;verticalAlign=middle;whiteSpace=wrap;rounded=0;fontSize=16;fontStyle=1" parent="1" vertex="1">
          <mxGeometry x="-100" y="260" width="100" height="30" as="geometry" />
        </mxCell>
        <mxCell id="7zDMnjXNS5eOzX1RUn6U-4" value="AL2: Drivers" style="text;html=1;align=center;verticalAlign=middle;whiteSpace=wrap;rounded=0;fontSize=16;fontStyle=1" parent="1" vertex="1">
          <mxGeometry x="-100" y="460" width="100" height="30" as="geometry" />
        </mxCell>
        <mxCell id="7zDMnjXNS5eOzX1RUn6U-5" value="AL1: Peripherals" style="text;html=1;align=center;verticalAlign=middle;whiteSpace=wrap;rounded=0;fontSize=16;fontStyle=1" parent="1" vertex="1">
          <mxGeometry x="-100" y="672" width="130" height="30" as="geometry" />
        </mxCell>
        <mxCell id="7zDMnjXNS5eOzX1RUn6U-6" value="MoveIt&lt;div&gt;(GUI)&lt;/div&gt;" style="rounded=1;whiteSpace=wrap;html=1;fillColor=#d5e8d4;strokeColor=#82b366;fontSize=16;" parent="1" vertex="1">
          <mxGeometry x="300" y="90" width="110" height="60" as="geometry" />
        </mxCell>
        <mxCell id="7zDMnjXNS5eOzX1RUn6U-7" value="&lt;div&gt;HMI&lt;/div&gt;(Text terminal)" style="rounded=1;whiteSpace=wrap;html=1;fillColor=#d5e8d4;strokeColor=#82b366;fontSize=16;" parent="1" vertex="1">
          <mxGeometry x="300" y="160" width="110" height="60" as="geometry" />
        </mxCell>
        <mxCell id="7zDMnjXNS5eOzX1RUn6U-8" value="Serial comms" style="rounded=1;whiteSpace=wrap;html=1;fillColor=#ffe6cc;strokeColor=#d79b00;fontSize=16;" parent="1" vertex="1">
          <mxGeometry x="695" y="160" width="110" height="60" as="geometry" />
        </mxCell>
        <mxCell id="7zDMnjXNS5eOzX1RUn6U-9" value="Control listener" style="rounded=1;whiteSpace=wrap;html=1;fillColor=#ffe6cc;strokeColor=#d79b00;fontSize=16;" parent="1" vertex="1">
          <mxGeometry x="695" y="80" width="110" height="60" as="geometry" />
        </mxCell>
        <mxCell id="7zDMnjXNS5eOzX1RUn6U-13" value="&lt;span style=&quot;background-color: rgb(214, 182, 86);&quot;&gt;Main loop&lt;/span&gt;" style="swimlane;whiteSpace=wrap;html=1;strokeWidth=1;fillStyle=hatch;" parent="1" vertex="1">
          <mxGeometry x="165" y="280" width="515" height="170" as="geometry">
            <mxRectangle x="165" y="280" width="90" height="30" as="alternateBounds" />
          </mxGeometry>
        </mxCell>
        <mxCell id="7zDMnjXNS5eOzX1RUn6U-17" value="update joint controller" style="rounded=1;whiteSpace=wrap;html=1;fillColor=#d5e8d4;strokeColor=#82b366;fontSize=16;" parent="7zDMnjXNS5eOzX1RUn6U-13" vertex="1">
          <mxGeometry x="135" y="30" width="110" height="60" as="geometry" />
        </mxCell>
        <mxCell id="7zDMnjXNS5eOzX1RUn6U-32" value="update encoder count" style="rounded=1;whiteSpace=wrap;html=1;fillColor=#d5e8d4;strokeColor=#82b366;fontSize=16;" parent="7zDMnjXNS5eOzX1RUn6U-13" vertex="1">
          <mxGeometry x="135" y="98" width="110" height="60" as="geometry" />
        </mxCell>
        <mxCell id="7zDMnjXNS5eOzX1RUn6U-33" value="update current meas." style="rounded=1;whiteSpace=wrap;html=1;fillColor=#fff2cc;strokeColor=#d6b656;fontSize=16;" parent="7zDMnjXNS5eOzX1RUn6U-13" vertex="1">
          <mxGeometry x="265" y="30" width="110" height="60" as="geometry" />
        </mxCell>
        <mxCell id="7zDMnjXNS5eOzX1RUn6U-34" value="Update IMU reading" style="rounded=1;whiteSpace=wrap;html=1;fillColor=#d5e8d4;strokeColor=#82b366;fontSize=16;" parent="7zDMnjXNS5eOzX1RUn6U-13" vertex="1">
          <mxGeometry x="5" y="30" width="110" height="60" as="geometry" />
        </mxCell>
        <mxCell id="7zDMnjXNS5eOzX1RUn6U-14" value="CAN driver" style="rounded=1;whiteSpace=wrap;html=1;fillColor=#dae8fc;strokeColor=#6c8ebf;fontSize=16;" parent="1" vertex="1">
          <mxGeometry x="560" y="612" width="110" height="60" as="geometry" />
        </mxCell>
        <mxCell id="7zDMnjXNS5eOzX1RUn6U-15" value="ADC driver" style="rounded=1;whiteSpace=wrap;html=1;fillColor=#fff2cc;strokeColor=#d6b656;fontSize=16;" parent="1" vertex="1">
          <mxGeometry x="430" y="612" width="110" height="60" as="geometry" />
        </mxCell>
        <mxCell id="7zDMnjXNS5eOzX1RUn6U-16" value="Accelerometer driver" style="rounded=1;whiteSpace=wrap;html=1;fillColor=#d5e8d4;strokeColor=#82b366;fontSize=16;" parent="1" vertex="1">
          <mxGeometry x="170" y="612" width="110" height="60" as="geometry" />
        </mxCell>
        <mxCell id="7zDMnjXNS5eOzX1RUn6U-19" value="Motor driver" style="rounded=1;whiteSpace=wrap;html=1;fillColor=#d5e8d4;strokeColor=#82b366;fontSize=16;" parent="1" vertex="1">
          <mxGeometry x="300" y="612" width="110" height="60" as="geometry" />
        </mxCell>
        <mxCell id="7zDMnjXNS5eOzX1RUn6U-20" value="ROS parser" style="rounded=1;whiteSpace=wrap;html=1;fillColor=#ffe6cc;strokeColor=#d79b00;fontSize=16;" parent="1" vertex="1">
          <mxGeometry x="695" y="540" width="110" height="60" as="geometry" />
        </mxCell>
        <mxCell id="7zDMnjXNS5eOzX1RUn6U-21" value="String cmd parser" style="rounded=1;whiteSpace=wrap;html=1;fillColor=#ffe6cc;strokeColor=#d79b00;fontSize=16;" parent="1" vertex="1">
          <mxGeometry x="695" y="445" width="110" height="60" as="geometry" />
        </mxCell>
        <mxCell id="7zDMnjXNS5eOzX1RUn6U-23" value="UART driver" style="rounded=1;whiteSpace=wrap;html=1;fillColor=#ffe6cc;strokeColor=#d79b00;fontSize=16;" parent="1" vertex="1">
          <mxGeometry x="695" y="612" width="110" height="60" as="geometry" />
        </mxCell>
        <mxCell id="7zDMnjXNS5eOzX1RUn6U-25" value="adc" style="rounded=1;whiteSpace=wrap;html=1;fillColor=#fff2cc;strokeColor=#d6b656;fontSize=16;" parent="1" vertex="1">
          <mxGeometry x="430" y="712" width="110" height="60" as="geometry" />
        </mxCell>
        <mxCell id="7zDMnjXNS5eOzX1RUn6U-26" value="can" style="rounded=1;whiteSpace=wrap;html=1;fillColor=#dae8fc;strokeColor=#6c8ebf;fontSize=16;" parent="1" vertex="1">
          <mxGeometry x="560" y="712" width="110" height="60" as="geometry" />
        </mxCell>
        <mxCell id="7zDMnjXNS5eOzX1RUn6U-27" value="i2c" style="rounded=1;whiteSpace=wrap;html=1;fillColor=#d5e8d4;strokeColor=#82b366;fontSize=16;" parent="1" vertex="1">
          <mxGeometry x="170" y="712" width="110" height="60" as="geometry" />
        </mxCell>
        <mxCell id="7zDMnjXNS5eOzX1RUn6U-29" value="gpio" style="rounded=1;whiteSpace=wrap;html=1;fillColor=#f8cecc;strokeColor=#b85450;fontSize=16;" parent="1" vertex="1">
          <mxGeometry x="45" y="712" width="110" height="60" as="geometry" />
        </mxCell>
        <mxCell id="7zDMnjXNS5eOzX1RUn6U-30" value="tim" style="rounded=1;whiteSpace=wrap;html=1;fillColor=#d5e8d4;strokeColor=#82b366;fontSize=16;" parent="1" vertex="1">
          <mxGeometry x="300" y="712" width="110" height="60" as="geometry" />
        </mxCell>
        <mxCell id="7zDMnjXNS5eOzX1RUn6U-31" value="usart" style="rounded=1;whiteSpace=wrap;html=1;fillColor=#ffe6cc;strokeColor=#d79b00;fontSize=16;" parent="1" vertex="1">
          <mxGeometry x="695" y="712" width="110" height="60" as="geometry" />
        </mxCell>
        <mxCell id="7zDMnjXNS5eOzX1RUn6U-18" value="Calibration" style="rounded=1;whiteSpace=wrap;html=1;fillColor=#f8cecc;strokeColor=#b85450;fontSize=16;" parent="1" vertex="1">
          <mxGeometry x="45" y="380" width="110" height="60" as="geometry" />
        </mxCell>
        <mxCell id="7zDMnjXNS5eOzX1RUn6U-22" value="CAN executives" style="rounded=1;whiteSpace=wrap;html=1;fillColor=#dae8fc;strokeColor=#6c8ebf;fontSize=16;" parent="1" vertex="1">
          <mxGeometry x="560" y="310" width="110" height="60" as="geometry" />
        </mxCell>
        <mxCell id="7zDMnjXNS5eOzX1RUn6U-65" value="Joint movement" style="text;html=1;align=center;verticalAlign=middle;whiteSpace=wrap;rounded=0;fontSize=15;fontStyle=1" parent="1" vertex="1">
          <mxGeometry x="310" y="50" width="90" height="30" as="geometry" />
        </mxCell>
        <mxCell id="7zDMnjXNS5eOzX1RUn6U-66" value="UART" style="text;html=1;align=center;verticalAlign=middle;whiteSpace=wrap;rounded=0;fontSize=15;fontStyle=1" parent="1" vertex="1">
          <mxGeometry x="705" y="40" width="90" height="30" as="geometry" />
        </mxCell>
        <mxCell id="7zDMnjXNS5eOzX1RUn6U-67" value="CAN" style="text;html=1;align=center;verticalAlign=middle;whiteSpace=wrap;rounded=0;fontSize=15;fontStyle=1" parent="1" vertex="1">
          <mxGeometry x="570" y="230" width="90" height="30" as="geometry" />
        </mxCell>
        <mxCell id="7zDMnjXNS5eOzX1RUn6U-68" value="ADC" style="text;html=1;align=center;verticalAlign=middle;whiteSpace=wrap;rounded=0;fontSize=15;fontStyle=1" parent="1" vertex="1">
          <mxGeometry x="440" y="230" width="90" height="30" as="geometry" />
        </mxCell>
        <mxCell id="7zDMnjXNS5eOzX1RUn6U-69" value="I2C" style="text;html=1;align=center;verticalAlign=middle;whiteSpace=wrap;rounded=0;fontSize=15;fontStyle=1" parent="1" vertex="1">
          <mxGeometry x="180" y="230" width="90" height="30" as="geometry" />
        </mxCell>
        <mxCell id="7zDMnjXNS5eOzX1RUn6U-71" value="" style="endArrow=none;dashed=1;html=1;rounded=0;exitX=1;exitY=0.5;exitDx=0;exitDy=0;entryX=1.014;entryY=0.543;entryDx=0;entryDy=0;entryPerimeter=0;" parent="1" source="7zDMnjXNS5eOzX1RUn6U-4" target="7zDMnjXNS5eOzX1RUn6U-50" edge="1">
          <mxGeometry width="50" height="50" relative="1" as="geometry">
            <mxPoint x="280" y="450" as="sourcePoint" />
            <mxPoint x="330" y="400" as="targetPoint" />
          </mxGeometry>
        </mxCell>
        <mxCell id="7zDMnjXNS5eOzX1RUn6U-72" value="" style="endArrow=none;dashed=1;html=1;rounded=0;entryX=1.014;entryY=0.543;entryDx=0;entryDy=0;entryPerimeter=0;exitX=1;exitY=0.5;exitDx=0;exitDy=0;" parent="1" source="7zDMnjXNS5eOzX1RUn6U-5" edge="1">
          <mxGeometry width="50" height="50" relative="1" as="geometry">
            <mxPoint x="140" y="690" as="sourcePoint" />
            <mxPoint x="820" y="686.47" as="targetPoint" />
          </mxGeometry>
        </mxCell>
        <mxCell id="7zDMnjXNS5eOzX1RUn6U-73" value="" style="endArrow=none;dashed=1;html=1;rounded=0;exitX=1;exitY=0.5;exitDx=0;exitDy=0;entryX=1.014;entryY=0.543;entryDx=0;entryDy=0;entryPerimeter=0;" parent="1" source="7zDMnjXNS5eOzX1RUn6U-3" edge="1">
          <mxGeometry width="50" height="50" relative="1" as="geometry">
            <mxPoint x="118" y="275.47" as="sourcePoint" />
            <mxPoint x="820" y="274.47" as="targetPoint" />
          </mxGeometry>
        </mxCell>
        <mxCell id="7zDMnjXNS5eOzX1RUn6U-74" value="" style="endArrow=none;dashed=1;html=1;rounded=0;" parent="1" edge="1" source="7zDMnjXNS5eOzX1RUn6U-2">
          <mxGeometry width="50" height="50" relative="1" as="geometry">
            <mxPoint x="165" y="81.47000000000003" as="sourcePoint" />
            <mxPoint x="820" y="80" as="targetPoint" />
          </mxGeometry>
        </mxCell>
        <mxCell id="7zDMnjXNS5eOzX1RUn6U-75" value="unit config" style="rounded=1;whiteSpace=wrap;html=1;fillColor=#f8cecc;strokeColor=#b85450;fontSize=16;" parent="1" vertex="1">
          <mxGeometry x="45" y="780" width="110" height="60" as="geometry" />
        </mxCell>
        <mxCell id="7zDMnjXNS5eOzX1RUn6U-76" value="State machine" style="rounded=1;whiteSpace=wrap;html=1;fillColor=#f8cecc;strokeColor=#b85450;fontSize=16;" parent="1" vertex="1">
          <mxGeometry x="45" y="310" width="110" height="60" as="geometry" />
        </mxCell>
        <mxCell id="7zDMnjXNS5eOzX1RUn6U-78" value="Global" style="text;html=1;align=center;verticalAlign=middle;whiteSpace=wrap;rounded=0;fontSize=15;fontStyle=1" parent="1" vertex="1">
          <mxGeometry x="55" y="230" width="90" height="30" as="geometry" />
        </mxCell>
      </root>
    </mxGraphModel>
  </diagram>
</mxfile>
